<svg width="15" height="15" viewBox="0 0 15 15" fill="none" xmlns="http://www.w3.org/2000/svg">
<path d="M7.5 1.26758C9.22301 -0.430332 11.9965 -0.42239 13.71 1.29102C15.4232 3.00445 15.4303 5.77704 13.7324 7.5C15.4307 9.22298 15.4235 11.9964 13.71 13.71C11.9964 15.4235 9.22299 15.4307 7.5 13.7324C5.77703 15.4303 3.00444 15.4232 1.29102 13.71C-0.422382 11.9965 -0.430306 9.22301 1.26758 7.5C-0.42995 5.77696 -0.422273 3.00431 1.29102 1.29102C3.00431 -0.422261 5.77696 -0.429946 7.5 1.26758ZM9.56934 5.28516C8.36448 4.08042 6.41086 4.08035 5.20605 5.28516C4.00127 6.48997 4.00133 8.44359 5.20605 9.64844C6.41089 10.8533 8.36449 10.8533 9.56934 9.64844C10.7742 8.44359 10.7742 6.49 9.56934 5.28516Z" fill="#FF85C0"/>
</svg>
