<svg width="15" height="15" viewBox="0 0 15 15" fill="none" xmlns="http://www.w3.org/2000/svg">
<path d="M7.49972 1.26822C9.22267 -0.430103 11.9951 -0.422798 13.7087 1.29068C15.422 3.00427 15.4294 5.77677 13.7312 7.49966C15.4294 9.22265 15.4222 11.9961 13.7087 13.7096C11.9951 15.4227 9.22255 15.4292 7.49972 13.7311C5.77696 15.4293 3.00436 15.4226 1.29073 13.7096C-0.42284 11.996 -0.430098 9.22264 1.26827 7.49966C-0.42999 5.77669 -0.422764 3.00423 1.29073 1.29068C3.00428 -0.422805 5.77675 -0.430042 7.49972 1.26822ZM9.56906 5.28482C8.36421 4.07997 6.41062 4.07997 5.20577 5.28482C4.00097 6.48964 4.001 8.44228 5.20577 9.64712C6.41062 10.852 8.36421 10.852 9.56906 9.64712C10.7733 8.44238 10.7733 6.48954 9.56906 5.28482Z" fill="#0986EB"/>
</svg>
