<svg width="19" height="21" viewBox="0 0 19 21" fill="none" xmlns="http://www.w3.org/2000/svg">
								<path d="M18.4548 14.7745C17.9152 13.8449 17.1129 11.2146 17.1129 7.77912C17.1129 5.71597 16.2934 3.73732 14.8345 2.27845C13.3756 0.819584 11.397 0 9.33382 0C7.27067 0 5.29202 0.819584 3.83315 2.27845C2.37428 3.73732 1.5547 5.71597 1.5547 7.77912C1.5547 11.2155 0.751503 13.8449 0.211826 14.7745C0.07401 15.0108 0.000948367 15.2793 9.17058e-06 15.5529C-0.000930026 15.8265 0.0702866 16.0955 0.206477 16.3327C0.342667 16.57 0.539016 16.7672 0.775721 16.9044C1.01243 17.0415 1.28112 17.1139 1.5547 17.1141H5.52302C5.7025 17.9923 6.1798 18.7816 6.87419 19.3484C7.56858 19.9152 8.43745 20.2248 9.33382 20.2248C10.2302 20.2248 11.0991 19.9152 11.7934 19.3484C12.4878 18.7816 12.9651 17.9923 13.1446 17.1141H17.1129C17.3864 17.1137 17.655 17.0412 17.8916 16.904C18.1281 16.7668 18.3244 16.5696 18.4604 16.3323C18.5965 16.0951 18.6676 15.8262 18.6667 15.5527C18.6657 15.2792 18.5926 15.0108 18.4548 14.7745ZM9.33382 18.6699C8.85134 18.6697 8.38076 18.5201 7.98686 18.2414C7.59296 17.9628 7.2951 17.569 7.13427 17.1141H11.5334C11.3725 17.569 11.0747 17.9628 10.6808 18.2414C10.2869 18.5201 9.8163 18.6697 9.33382 18.6699Z" fill="#A3A3A3" />
							</svg>