<svg width="23" height="23" viewBox="0 0 23 23" fill="none" xmlns="http://www.w3.org/2000/svg">
									<path d="M12.5231 3.98997C12.5467 3.90184 12.5874 3.81921 12.6429 3.74682C12.6984 3.67443 12.7677 3.61368 12.8467 3.56805C12.9257 3.52243 13.0129 3.49281 13.1033 3.4809C13.1938 3.469 13.2857 3.47503 13.3738 3.49865C14.6612 3.83454 15.8358 4.50754 16.7766 5.44834C17.7174 6.38913 18.3904 7.5637 18.7262 8.85108C18.7499 8.9392 18.7559 9.03111 18.744 9.12156C18.7321 9.21201 18.7025 9.29923 18.6568 9.37823C18.6112 9.45723 18.5505 9.52647 18.4781 9.58198C18.4057 9.6375 18.3231 9.6782 18.2349 9.70178C18.1763 9.71719 18.1159 9.72506 18.0552 9.72521C17.9023 9.72526 17.7537 9.67483 17.6323 9.58176C17.511 9.48868 17.4238 9.35817 17.3842 9.21046C17.1104 8.15936 16.5612 7.20031 15.7933 6.4322C15.0253 5.66408 14.0663 5.11469 13.0153 4.84067C12.9271 4.81719 12.8444 4.77655 12.7719 4.72107C12.6994 4.66559 12.6386 4.59637 12.5928 4.51736C12.5471 4.43835 12.5174 4.3511 12.5055 4.26061C12.4935 4.17011 12.4995 4.07815 12.5231 3.98997ZM12.3209 7.61844C13.5179 7.93789 14.287 8.70785 14.6065 9.9049C14.646 10.0526 14.7332 10.1831 14.8546 10.2762C14.9759 10.3693 15.1245 10.4197 15.2775 10.4197C15.3381 10.4195 15.3985 10.4116 15.4571 10.3962C15.5453 10.3726 15.6279 10.3319 15.7003 10.2764C15.7727 10.2209 15.8334 10.1517 15.8791 10.0727C15.9247 9.99367 15.9543 9.90646 15.9662 9.81601C15.9781 9.72556 15.9721 9.63365 15.9485 9.54553C15.504 7.88233 14.3426 6.72087 12.6794 6.27643C12.5014 6.22889 12.3118 6.25399 12.1524 6.34621C11.9929 6.43843 11.8766 6.59022 11.8291 6.76818C11.7816 6.94615 11.8067 7.1357 11.8989 7.29516C11.9911 7.45461 12.1429 7.5709 12.3209 7.61844ZM18.6082 14.4526L14.5188 12.6202L14.5075 12.615C14.2952 12.5242 14.0636 12.4877 13.8337 12.5089C13.6038 12.5302 13.3827 12.6084 13.1907 12.7365C13.168 12.7514 13.1463 12.7677 13.1256 12.7851L11.0127 14.5863C9.67416 13.9362 8.29222 12.5646 7.64204 11.2434L9.44586 9.09848C9.46322 9.07678 9.47972 9.05508 9.49534 9.03164C9.62071 8.84006 9.69678 8.62046 9.71677 8.39238C9.73676 8.1643 9.70006 7.93481 9.60993 7.72435V7.71393L7.77225 3.61757C7.6531 3.34263 7.44823 3.11359 7.18821 2.96466C6.9282 2.81572 6.62699 2.75487 6.32954 2.79119C5.1533 2.94597 4.07362 3.52362 3.29216 4.41627C2.5107 5.30891 2.08089 6.4555 2.08302 7.64188C2.08302 14.5342 7.69065 20.1419 14.583 20.1419C15.7694 20.144 16.916 19.7142 17.8086 18.9327C18.7013 18.1513 19.2789 17.0716 19.4337 15.8954C19.4701 15.598 19.4094 15.2969 19.2606 15.0369C19.1118 14.7769 18.883 14.5719 18.6082 14.4526Z" fill="#A3A3A3" />
								</svg>